<svg id="svg-source" height="0" version="1.1" 
	  xmlns="http://www.w3.org/2000/svg" style="position:absolute; margin-left: -100%" 
	  xmlns:xlink="http://www.w3.org/1999/xlink">
	  <g id="arrow-left" data-iconmelon="Dripicons:1343443effeb28db6f9ad48fdc372632">
	    <path d="M30.096,14.096H6.501l7.086-7.086c0.744-0.744,0.744-1.949,0-2.692c-0.743-0.744-1.949-0.744-2.692,0L0.558,14.654
		C0.201,15.011,0,15.495,0,16s0.201,0.989,0.558,1.346l10.337,10.336c0.372,0.372,0.859,0.558,1.347,0.558
		c0.486,0,0.975-0.186,1.346-0.558c0.744-0.743,0.744-1.949,0-2.692l-7.086-7.086h23.595C31.147,17.904,32,17.052,32,16
		C32,14.949,31.147,14.096,30.096,14.096z"></path>
	  </g>
	  <g id="success" data-iconmelon="80 icons pack:42aff8ecc254a0254be7fd43df10ab07">
	    <g>
	      <g>
	        <path d="M22.917,9.959c-0.572-0.42-1.377-0.298-1.797,0.274l-7.005,9.526l-3.27-4.055c-0.445-0.553-1.254-0.64-1.808-0.194
				c-0.552,0.446-0.639,1.255-0.193,1.807l4.316,5.354c0.245,0.303,0.612,0.479,1.001,0.479c0.009,0,0.019,0,0.028,0
				c0.398-0.009,0.771-0.203,1.007-0.524l7.992-10.871C23.61,11.184,23.487,10.379,22.917,9.959z"></path>
	      </g>
	      <g>
	        <path d="M16,0C7.178,0,0,7.178,0,16c0,8.823,7.178,16,16,16s16-7.178,16-16C32,7.178,24.822,0,16,0z M16,28.888
				C8.894,28.888,3.112,23.106,3.112,16C3.112,8.894,8.894,3.112,16,3.112S28.888,8.894,28.888,16
				C28.888,23.106,23.106,28.888,16,28.888z"></path>
	      </g>
	    </g>
	  </g>
	  <g id="error" data-iconmelon="80 icons pack:a727f97a9188078bf1c40cc3c4a82836">
	    <g>
	      <g>
	        <path d="M16,0C7.178,0,0,7.178,0,16c0,8.822,7.178,16,16,16s16-7.178,16-16C32,7.178,24.822,0,16,0z M16,28.888
				C8.895,28.888,3.111,23.106,3.111,16C3.111,8.894,8.895,3.112,16,3.112S28.889,8.894,28.889,16
				C28.889,23.106,23.105,28.888,16,28.888z"></path>
	      </g>
	      <g>
	        <path d="M22.203,9.393c-0.626-0.587-1.611-0.558-2.199,0.07L16,13.727l-4.004-4.265c-0.588-0.627-1.573-0.657-2.199-0.07
				c-0.627,0.589-0.658,1.573-0.069,2.199L13.867,16l-4.14,4.408c-0.589,0.626-0.558,1.61,0.069,2.199
				c0.301,0.281,0.683,0.421,1.065,0.421c0.414,0,0.827-0.165,1.134-0.491L16,18.273l4.004,4.265c0.307,0.326,0.72,0.491,1.134,0.491
				c0.383,0,0.765-0.14,1.065-0.421c0.627-0.589,0.657-1.573,0.069-2.199L18.133,16l4.14-4.408
				C22.86,10.966,22.83,9.981,22.203,9.393z"></path>
	      </g>
	    </g>
	  </g>
	  <g id="search" data-iconmelon="80 icons pack:895d6ae2a8636398f4a93d4cc2e19ee6">
	    <g>
	      <path d="M28.644,3.356C26.479,1.191,23.603,0,20.542,0c-3.06,0-5.938,1.191-8.102,3.356c-4.229,4.229-4.448,10.966-0.669,15.463
			l-1.877,1.876c-0.946-0.4-2.079-0.218-2.851,0.554l-6.282,6.282c-1.016,1.016-1.016,2.661,0,3.677l0.03,0.031
			c1.016,1.015,2.661,1.015,3.677,0l6.282-6.283c0.771-0.771,0.953-1.905,0.553-2.852l1.875-1.874
			c2.061,1.735,4.638,2.686,7.363,2.686c3.061,0,5.938-1.191,8.102-3.356C30.809,17.396,32,14.519,32,11.458
			S30.809,5.521,28.644,3.356z M26.959,17.875c-1.714,1.714-3.993,2.657-6.417,2.657s-4.702-0.943-6.417-2.657
			c-3.537-3.538-3.537-9.296,0-12.834c1.715-1.714,3.993-2.657,6.417-2.657s4.703,0.943,6.417,2.657s2.657,3.993,2.657,6.417
			S28.673,16.16,26.959,17.875z"></path>
	    </g>
	  </g>
	  <g id="rotate" data-iconmelon="80 icons pack:b336822e0b8b406043f4a2143a411957">
	    <g>
	      <g>
	        <path d="M30.65,15.393c-0.813-0.07-1.533,0.53-1.606,1.344c-0.272,3.062-1.62,5.947-3.798,8.124
				c-2.482,2.482-5.783,3.851-9.294,3.851c-3.126,0-6.082-1.09-8.444-3.081l1.625,0.301c0.091,0.017,0.182,0.025,0.271,0.025
				c0.7,0,1.323-0.499,1.456-1.213c0.146-0.805-0.385-1.576-1.188-1.726l-6.408-1.184c-0.036-0.007-0.07-0.004-0.105-0.01
				c-0.056-0.006-0.109-0.013-0.165-0.013c-0.053,0-0.104,0.007-0.156,0.013c-0.037,0.005-0.074,0.002-0.111,0.01
				c-0.009,0.001-0.017,0.005-0.024,0.007c-0.058,0.011-0.111,0.03-0.165,0.047c-0.039,0.014-0.078,0.023-0.115,0.039
				c-0.053,0.022-0.102,0.051-0.15,0.078c-0.033,0.02-0.068,0.035-0.102,0.057c-0.051,0.035-0.098,0.077-0.145,0.117
				C2,22.2,1.974,22.218,1.951,22.24c-0.048,0.047-0.088,0.101-0.129,0.152c-0.018,0.022-0.037,0.042-0.053,0.065
				c-0.033,0.048-0.058,0.102-0.086,0.154c-0.017,0.033-0.037,0.065-0.053,0.102c-0.017,0.041-0.027,0.086-0.042,0.13
				c-0.017,0.051-0.034,0.102-0.044,0.153c-0.002,0.009-0.006,0.016-0.008,0.023c-0.006,0.036-0.005,0.072-0.008,0.107
				c-0.006,0.055-0.014,0.106-0.014,0.162c0,0.055,0.008,0.108,0.014,0.161c0.003,0.036,0.002,0.071,0.008,0.108l1.185,6.407
				c0.132,0.713,0.755,1.213,1.455,1.213c0.089,0,0.179-0.009,0.271-0.025c0.804-0.149,1.336-0.922,1.188-1.726l-0.334-1.807
				c2.945,2.609,6.684,4.05,10.651,4.05c4.303,0,8.347-1.675,11.388-4.717c2.668-2.668,4.32-6.203,4.654-9.956
				C32.066,16.185,31.465,15.465,30.65,15.393z"></path>
	      </g>
	      <g>
	        <path d="M2.956,15.264c0.271-3.062,1.62-5.946,3.797-8.124c2.482-2.483,5.782-3.851,9.294-3.851c3.127,0,6.082,1.09,8.445,3.081
				l-1.625-0.301c-0.809-0.149-1.577,0.384-1.725,1.187c-0.148,0.805,0.382,1.577,1.187,1.727l6.407,1.184c0.001,0,0.002,0,0.002,0
				c0.086,0.017,0.176,0.025,0.266,0.025c0,0,0.001,0,0.002,0h0.001c0.09,0,0.179-0.009,0.266-0.025c0.001,0,0.001,0,0.002,0
				c0.006-0.001,0.011-0.004,0.018-0.005c0.085-0.017,0.167-0.041,0.247-0.071c0.031-0.013,0.061-0.028,0.092-0.043
				c0.051-0.024,0.102-0.049,0.15-0.079c0.032-0.021,0.064-0.042,0.094-0.064c0.043-0.031,0.084-0.064,0.123-0.101
				c0.027-0.024,0.054-0.05,0.079-0.077c0.038-0.04,0.073-0.083,0.108-0.127c0.02-0.027,0.041-0.055,0.059-0.083
				c0.031-0.048,0.059-0.1,0.084-0.151c0.016-0.031,0.031-0.061,0.045-0.092c0.021-0.051,0.036-0.104,0.051-0.159
				c0.012-0.036,0.023-0.071,0.031-0.109c0.002-0.009,0.004-0.016,0.006-0.024c0.008-0.036,0.006-0.071,0.01-0.107
				c0.006-0.053,0.013-0.106,0.013-0.162s-0.007-0.108-0.013-0.162c-0.004-0.035-0.002-0.071-0.01-0.107l-1.184-6.407
				c-0.148-0.804-0.918-1.337-1.725-1.188c-0.806,0.148-1.336,0.921-1.188,1.727l0.333,1.805c-2.944-2.608-6.683-4.049-10.651-4.049
				c-4.302,0-8.347,1.674-11.388,4.717c-2.669,2.668-4.321,6.204-4.653,9.956c-0.072,0.816,0.529,1.534,1.344,1.606
				c0.045,0.004,0.09,0.007,0.133,0.007C2.242,16.614,2.889,16.034,2.956,15.264z"></path>
	      </g>
	    </g>
	  </g>
	  <g id="settings-toolkit" data-iconmelon="Streamline Icon Set:d9ee473459f67edeed450e1389c157a9">
	    <g id="Expanded">
	      <g>
	        <g>
	          <path  d="M6.551,31.998L6.551,31.998c-0.885,0-1.745-0.175-2.557-0.519c-0.223-0.094-0.384-0.293-0.431-0.53
					c-0.046-0.237,0.029-0.481,0.199-0.652l2.571-2.57V25.67H4.276l-2.57,2.569c-0.171,0.171-0.415,0.247-0.653,0.199
					c-0.237-0.046-0.436-0.207-0.53-0.431c-1.045-2.469-0.497-5.286,1.396-7.179c1.234-1.236,2.876-1.916,4.623-1.916
					c0.717,0,1.419,0.115,2.091,0.342L19.252,8.636c-0.794-2.351-0.202-4.939,1.572-6.714c1.235-1.234,2.877-1.914,4.624-1.914
					c0.885,0,1.745,0.174,2.557,0.518c0.224,0.095,0.385,0.293,0.432,0.53c0.046,0.237-0.028,0.482-0.2,0.653l-2.57,2.571v2.057
					h2.058l2.569-2.57c0.172-0.171,0.413-0.247,0.653-0.199c0.236,0.045,0.436,0.207,0.529,0.431c1.045,2.469,0.497,5.287-1.396,7.18
					c-1.233,1.234-2.876,1.914-4.622,1.914c-0.718,0-1.419-0.114-2.091-0.341L12.747,23.369c0.794,2.351,0.202,4.939-1.574,6.715
					C9.94,31.317,8.297,31.998,6.551,31.998z M5.652,30.465c0.294,0.052,0.595,0.078,0.899,0.078c1.359,0,2.635-0.528,3.595-1.487
					c1.473-1.473,1.898-3.665,1.085-5.585c-0.116-0.273-0.054-0.589,0.156-0.799L22.669,11.39c0.211-0.209,0.526-0.272,0.798-0.156
					c0.632,0.267,1.303,0.403,1.99,0.403c1.358,0,2.635-0.528,3.595-1.488c1.199-1.199,1.704-2.876,1.411-4.496l-1.926,1.925
					C28.4,7.714,28.216,7.79,28.023,7.79h-3.085c-0.4,0-0.727-0.325-0.727-0.727V3.978c0-0.193,0.076-0.377,0.213-0.514l1.924-1.923
					c-0.295-0.052-0.595-0.079-0.899-0.079c-1.358,0-2.636,0.529-3.596,1.488c-1.472,1.473-1.897,3.665-1.085,5.585
					c0.115,0.272,0.054,0.588-0.155,0.798L9.33,20.616c-0.209,0.209-0.526,0.271-0.798,0.155c-0.632-0.267-1.301-0.403-1.99-0.403
					c-1.359,0-2.635,0.528-3.595,1.489c-1.199,1.199-1.705,2.876-1.411,4.496l1.925-1.925c0.137-0.138,0.321-0.213,0.514-0.213h3.085
					c0.401,0,0.727,0.325,0.727,0.727v3.086c0,0.192-0.076,0.378-0.213,0.514L5.652,30.465z"></path>
	        </g>
	        <g>
	          <path  d="M29.091,31.998c-0.776,0-1.508-0.303-2.057-0.853L20.35,24.46c-0.284-0.283-0.284-0.744,0-1.028
					l3.085-3.084c0.283-0.284,0.744-0.284,1.028,0l6.685,6.685c0.55,0.549,0.853,1.28,0.853,2.057c0,0.777-0.304,1.509-0.853,2.058
					S29.868,31.998,29.091,31.998z M21.894,23.946l6.169,6.171c0.549,0.549,1.507,0.55,2.057,0c0.275-0.274,0.426-0.64,0.426-1.028
					s-0.15-0.754-0.425-1.028l-6.17-6.171L21.894,23.946z"></path>
	        </g>
	        <g>
	          <rect x="4.155" y="9.292" transform="matrix(-0.7071 -0.7071 0.7071 -0.7071 10.024 24.1904)"  width="11.734" height="1.454"></rect>
	        </g>
	        <g>
	          <path  d="M19.321,26.217c-0.187,0-0.373-0.071-0.515-0.213c-0.284-0.284-0.284-0.744,0-1.028l6.17-6.171
					c0.284-0.284,0.744-0.284,1.028,0c0.284,0.285,0.284,0.744,0,1.028l-6.17,6.171C19.693,26.146,19.507,26.217,19.321,26.217z"></path>
	        </g>
	        <g>
	          <path  d="M4.845,7.626c-0.187,0-0.373-0.071-0.514-0.213L0.217,3.3C0.081,3.164,0.004,2.979,0.004,2.786
					c0-0.194,0.076-0.378,0.213-0.514l2.057-2.057c0.285-0.285,0.744-0.285,1.028,0l4.113,4.114C7.552,4.466,7.628,4.65,7.628,4.843
					c0,0.193-0.076,0.378-0.213,0.514L5.359,7.414C5.217,7.556,5.031,7.626,4.845,7.626z M1.76,2.786l3.085,3.085l1.028-1.028
					L2.788,1.758L1.76,2.786z"></path>
	        </g>
	        <g>
	          <rect x="16.151" y="19.195" transform="matrix(-0.7072 -0.707 0.707 -0.7072 19.9308 48.0993)"  width="7.55" height="1.454"></rect>
	        </g>
	      </g>
	    </g>
	  </g>
	  
	  <g id="lock" data-iconmelon="80 icons pack:90627189ccb9b89b685d4fc3743bf59c">
	    <g>
	      <g>
	        <path d="M26.704,11.066c0.024-0.104,0.041-0.21,0.041-0.32C26.745,4.82,21.926,0,16,0C10.076,0,5.256,4.82,5.256,10.746
				c0,0.11,0.016,0.216,0.041,0.32c-1.41,0.848-2.359,2.389-2.359,4.15v11.939C2.938,29.827,5.111,32,7.782,32h16.437
				c2.672,0,4.845-2.173,4.845-4.844V15.217C29.063,13.455,28.115,11.914,26.704,11.066z M16,2.769c4.272,0,7.762,3.379,7.958,7.604
				H8.043C8.24,6.147,11.729,2.769,16,2.769z M26.295,27.156c0,1.145-0.932,2.076-2.076,2.076H7.782
				c-1.146,0-2.077-0.932-2.077-2.076V15.217c0-1.145,0.932-2.076,2.077-2.076h16.437c1.145,0,2.076,0.932,2.076,2.076V27.156z"></path>
	      </g>
	      <g>
	        <path d="M18.596,19.89c0-1.433-1.162-2.595-2.596-2.595c-1.432,0-2.594,1.162-2.594,2.595c0,0.826,0.393,1.554,0.994,2.028
				l-0.475,4.51c-0.01,0.097,0.021,0.194,0.087,0.268c0.066,0.072,0.159,0.114,0.258,0.114h3.46c0.006,0.001,0.012,0,0.014,0
				c0.191,0,0.346-0.155,0.346-0.346c0-0.046-0.008-0.091-0.025-0.131L17.6,21.918C18.201,21.443,18.596,20.716,18.596,19.89z"></path>
	      </g>
	    </g>
	  </g>
	  <g id="unlock" data-iconmelon="80 icons pack:9c2538fbf06d8eae2da984c31e956432">
	    <g>
	      <g>
	        <path d="M28.388,11.804H16.133c-0.042,0-0.082,0.005-0.123,0.007c-0.146-4.291-3.672-7.74-7.998-7.74C3.594,4.07,0,7.665,0,12.083
				c0,0.569,0.463,1.032,1.032,1.032c0.57,0,1.032-0.463,1.032-1.032c0-3.28,2.668-5.948,5.947-5.948s5.947,2.668,5.947,5.948
				c0,0.14,0.028,0.272,0.08,0.396c-0.918,0.655-1.52,1.727-1.52,2.938v8.902c0,1.991,1.621,3.612,3.613,3.612h12.255
				c1.991,0,3.612-1.621,3.612-3.612v-8.902C32,13.425,30.379,11.804,28.388,11.804z M29.936,24.318c0,0.854-0.694,1.548-1.548,1.548
				H16.133c-0.854,0-1.549-0.694-1.549-1.548v-8.902c0-0.853,0.695-1.548,1.549-1.548h12.255c0.854,0,1.548,0.695,1.548,1.548V24.318
				z"></path>
	      </g>
	      <g>
	        <path d="M24.194,18.9c0-1.068-0.866-1.936-1.935-1.936s-1.935,0.867-1.935,1.936c0,0.616,0.294,1.158,0.742,1.513l-0.354,3.362
				c-0.007,0.072,0.016,0.145,0.064,0.199c0.05,0.055,0.119,0.086,0.192,0.086h2.58c0.004,0,0.008,0,0.011,0
				c0.142,0,0.258-0.116,0.258-0.259c0-0.034-0.008-0.067-0.02-0.098l-0.347-3.291C23.9,20.059,24.194,19.517,24.194,18.9z"></path>
	      </g>
	    </g>
	  </g>
	</svg>