<svg id="svg-source" height="0" version="1.1" 
  xmlns="http://www.w3.org/2000/svg" style="position:absolute; margin-left: -100%" 
  xmlns:xlink="http://www.w3.org/1999/xlink">
  <g id="success" data-iconmelon="80 icons pack:42aff8ecc254a0254be7fd43df10ab07">
    <g>
      <g>
        <path d="M22.917,9.959c-0.572-0.42-1.377-0.298-1.797,0.274l-7.005,9.526l-3.27-4.055c-0.445-0.553-1.254-0.64-1.808-0.194
			c-0.552,0.446-0.639,1.255-0.193,1.807l4.316,5.354c0.245,0.303,0.612,0.479,1.001,0.479c0.009,0,0.019,0,0.028,0
			c0.398-0.009,0.771-0.203,1.007-0.524l7.992-10.871C23.61,11.184,23.487,10.379,22.917,9.959z"></path>
      </g>
      <g>
        <path d="M16,0C7.178,0,0,7.178,0,16c0,8.823,7.178,16,16,16s16-7.178,16-16C32,7.178,24.822,0,16,0z M16,28.888
			C8.894,28.888,3.112,23.106,3.112,16C3.112,8.894,8.894,3.112,16,3.112S28.888,8.894,28.888,16
			C28.888,23.106,23.106,28.888,16,28.888z"></path>
      </g>
    </g>
  </g>
  <g id="error" data-iconmelon="80 icons pack:a727f97a9188078bf1c40cc3c4a82836">
    <g>
      <g>
        <path d="M16,0C7.178,0,0,7.178,0,16c0,8.822,7.178,16,16,16s16-7.178,16-16C32,7.178,24.822,0,16,0z M16,28.888
			C8.895,28.888,3.111,23.106,3.111,16C3.111,8.894,8.895,3.112,16,3.112S28.889,8.894,28.889,16
			C28.889,23.106,23.105,28.888,16,28.888z"></path>
      </g>
      <g>
        <path d="M22.203,9.393c-0.626-0.587-1.611-0.558-2.199,0.07L16,13.727l-4.004-4.265c-0.588-0.627-1.573-0.657-2.199-0.07
			c-0.627,0.589-0.658,1.573-0.069,2.199L13.867,16l-4.14,4.408c-0.589,0.626-0.558,1.61,0.069,2.199
			c0.301,0.281,0.683,0.421,1.065,0.421c0.414,0,0.827-0.165,1.134-0.491L16,18.273l4.004,4.265c0.307,0.326,0.72,0.491,1.134,0.491
			c0.383,0,0.765-0.14,1.065-0.421c0.627-0.589,0.657-1.573,0.069-2.199L18.133,16l4.14-4.408
			C22.86,10.966,22.83,9.981,22.203,9.393z"></path>
      </g>
    </g>
  </g>
  <g id="search" data-iconmelon="80 icons pack:895d6ae2a8636398f4a93d4cc2e19ee6">
    <g>
      <path d="M28.644,3.356C26.479,1.191,23.603,0,20.542,0c-3.06,0-5.938,1.191-8.102,3.356c-4.229,4.229-4.448,10.966-0.669,15.463
		l-1.877,1.876c-0.946-0.4-2.079-0.218-2.851,0.554l-6.282,6.282c-1.016,1.016-1.016,2.661,0,3.677l0.03,0.031
		c1.016,1.015,2.661,1.015,3.677,0l6.282-6.283c0.771-0.771,0.953-1.905,0.553-2.852l1.875-1.874
		c2.061,1.735,4.638,2.686,7.363,2.686c3.061,0,5.938-1.191,8.102-3.356C30.809,17.396,32,14.519,32,11.458
		S30.809,5.521,28.644,3.356z M26.959,17.875c-1.714,1.714-3.993,2.657-6.417,2.657s-4.702-0.943-6.417-2.657
		c-3.537-3.538-3.537-9.296,0-12.834c1.715-1.714,3.993-2.657,6.417-2.657s4.703,0.943,6.417,2.657s2.657,3.993,2.657,6.417
		S28.673,16.16,26.959,17.875z"></path>
    </g>
  </g>
</svg>